<?xml version="1.0" encoding="UTF-8"?>
<svg xmlns="http://www.w3.org/2000/svg" viewBox="-1.5 -1.5 166.134 191.371">
  <path d="M163.134,47.093L163.134,141.279L151.483,148.006L151.48,148.006L139.828,154.732L128.175,161.459L116.523,168.188L104.872,174.915L93.218,181.644L81.567,188.371L69.915,181.644L58.261,174.915L46.61,168.188L34.959,161.459L23.305,154.732L11.654,148.006L0.0,141.279L0.0,47.093L11.654,40.365L23.305,33.637L34.959,26.909L46.61,20.181L58.264,13.453L69.915,6.726L81.567,0.0L93.218,6.726L104.869,13.453L93.218,20.181L81.567,26.909L69.915,33.635L58.261,40.365L46.61,47.091L34.956,53.819L23.305,60.546L23.305,127.822L34.959,134.551L46.61,141.279L58.264,148.006L69.915,154.735L81.567,161.459L93.218,154.735L104.869,148.006L116.523,141.279L128.177,134.551L139.828,127.822L139.828,60.546L128.177,53.819L116.523,60.546L116.523,33.637L128.175,26.909L139.828,33.637L151.48,40.365L163.134,47.093Z" fill="none" stroke="#000000" stroke-width="3" stroke-linejoin="miter"/>
  <path d="M116.523,87.458L116.523,114.37L104.872,121.095L93.218,127.826L81.566,134.551L69.915,127.826L69.915,87.458L58.261,94.186L46.61,100.914L46.61,74.002L58.261,67.274L69.915,60.546L81.566,53.819L93.218,47.093L93.218,100.914L104.872,94.186L116.523,87.458Z" fill="none" stroke="#000000" stroke-width="3" stroke-linejoin="miter"/>
</svg>