<svg xmlns="http://www.w3.org/2000/svg" viewBox="0 0 1760.0 2030.0" fill="currentColor" aria-hidden="true">
  <g transform="translate(0,2030.0) scale(0.100000,-0.100000)">
    <path d="M4427 17719 l-4367 -2522 2 -5051 3 -5050 1690 -976 c930 -536 2893 -1670 4363 -2519 1635 -944 2680 -1541 2690 -1539 10 3 1073 614 2362 1359 1290 744 3250 1876 4355 2514 l2010 1160 3 5051 2 5051 -1867 1078 c-1028 593 -1870 1079 -1873 1081 -3 1 -285 -158 -625 -355 l-620 -358 -3 -1443 c-2 -1152 0 -1441 10 -1437 7 2 287 163 622 357 455 262 614 349 627 343 9 -4 290 -165 623 -358 l606 -350 -3 -3608 -2 -3608 -3117 -1800 -3118 -1800 -3120 1802 -3120 1801 0 3607 0 3606 1343 774 c1344 776 3773 2178 6130 3539 691 399 1257 729 1257 732 0 6 -2451 1424 -2480 1435 -9 3 -1766 -1006 -4383 -2516z m5515 1739 c621 -358 1127 -655 1126 -660 -2 -4 -547 -322 -1213 -706 -2846 -1644 -4776 -2758 -6032 -3483 l-1343 -774 0 -3686 0 -3687 3121 -1802 3121 -1801 86 3 87 3 3110 1797 3110 1797 2 3688 3 3688 -620 358 -620 357 -84 0 -85 0 -537 -310 c-295 -170 -538 -310 -540 -310 -2 0 -3 592 -2 1317 l3 1316 560 324 c308 178 570 329 581 335 19 9 267 -132 1853 -1047 l1831 -1058 -2 -4971 -3 -4971 -2010 -1160 c-1105 -638 -3053 -1762 -4327 -2498 l-2318 -1338 -2637 1523 c-1451 837 -3398 1962 -4328 2498 l-1690 976 -3 4970 -2 4971 4322 2496 c2378 1373 4329 2496 4337 2497 7 0 522 -293 1143 -652z M7620 13794 c-1328 -767 -2450 -1415 -2492 -1440 l-78 -45 0 -1439 c0 -792 3 -1440 6 -1440 3 0 563 322 1244 715 682 393 1241 715 1244 715 4 0 6 -972 6 -2159 l0 -2159 625 -361 626 -361 1352 781 c744 430 1587 917 1875 1082 l522 302 0 1443 0 1443 -27 -15 c-16 -8 -577 -332 -1248 -720 l-1220 -704 -3 2879 c-1 1583 -5 2879 -10 2879 -4 -1 -1094 -629 -2422 -1396z m2350 -1609 l0 -2835 81 0 81 0 1147 662 c630 364 1156 668 1169 676 l22 14 0 -1318 0 -1319 -522 -302 c-288 -165 -1112 -641 -1833 -1057 -803 -464 -1315 -754 -1325 -751 -8 4 -273 155 -587 337 l-573 330 0 2159 0 2159 -86 0 -85 0 -1161 -670 c-638 -369 -1162 -670 -1164 -670 -2 0 -4 592 -4 1315 l0 1315 53 30 c28 16 1114 644 2412 1394 1298 750 2363 1365 2368 1365 4 1 7 -1275 7 -2834z"/>
  </g>
</svg>