<svg xmlns="http://www.w3.org/2000/svg" viewBox="0 0 760.0 947.0" fill="currentColor" aria-hidden="true">
  <g transform="translate(0,947.0) scale(0.100000,-0.100000)">
    <path d="M2620 8024 c-1328 -767 -2450 -1415 -2492 -1440 l-78 -45 0 -1439 c0 -792 3 -1440 6 -1440 3 0 563 322 1244 715 682 393 1241 715 1244 715 4 0 6 -972 6 -2159 l0 -2159 625 -361 626 -361 1352 781 c744 430 1587 917 1875 1082 l522 302 0 1443 0 1443 -27 -15 c-16 -8 -577 -332 -1248 -720 l-1220 -704 -3 2879 c-1 1583 -5 2879 -10 2879 -4 -1 -1094 -629 -2422 -1396z m2370 -1579 l0 -2845 61 0 61 0 1147 662 c630 364 1165 673 1189 686 l42 24 0 -1349 0 -1348 -522 -302 c-288 -165 -1116 -643 -1841 -1062 -725 -419 -1322 -761 -1327 -761 -4 0 -274 153 -599 341 l-591 341 0 2159 0 2159 -66 0 -65 0 -1170 -676 c-644 -371 -1177 -678 -1185 -681 -12 -4 -14 179 -14 1341 l0 1345 78 45 c1076 624 4789 2766 4795 2766 4 0 7 -1280 7 -2845z"/>
  </g>
</svg>