<svg xmlns="http://www.w3.org/2000/svg" viewBox="0 0 750.0 937.0" fill="currentColor" aria-hidden="true">
  <g transform="translate(0,937.0) scale(0.100000,-0.100000)">
    <path d="M2570 7974 c-1328 -767 -2450 -1415 -2492 -1440 l-78 -45 0 -1439 c0 -792 3 -1440 6 -1440 3 0 563 322 1244 715 682 393 1241 715 1244 715 4 0 6 -972 6 -2159 l0 -2159 625 -361 626 -361 1352 781 c744 430 1587 917 1875 1082 l522 302 0 1443 0 1443 -27 -15 c-16 -8 -577 -332 -1248 -720 l-1220 -704 -3 2879 c-1 1583 -5 2879 -10 2879 -4 -1 -1094 -629 -2422 -1396z"/>
  </g>
</svg>