<svg xmlns="http://www.w3.org/2000/svg" viewBox="0 0 1750.0 2020.0" fill="currentColor" aria-hidden="true">
  <g transform="translate(0,2020.0) scale(0.100000,-0.100000)">
    <path d="M4377 17669 l-4367 -2522 2 -5051 3 -5050 1690 -976 c930 -536 2893 -1670 4363 -2519 1635 -944 2680 -1541 2690 -1539 10 3 1073 614 2362 1359 1290 744 3250 1876 4355 2514 l2010 1160 3 5051 2 5051 -1867 1078 c-1028 593 -1870 1079 -1873 1081 -3 1 -285 -158 -625 -355 l-620 -358 -3 -1443 c-2 -1152 0 -1441 10 -1437 7 2 287 163 622 357 455 262 614 349 627 343 9 -4 290 -165 623 -358 l606 -350 -3 -3608 -2 -3608 -3117 -1800 -3118 -1800 -3120 1802 -3120 1801 0 3607 0 3606 1343 774 c1344 776 3773 2178 6130 3539 691 399 1257 729 1257 732 0 6 -2451 1424 -2480 1435 -9 3 -1766 -1006 -4383 -2516z M7570 13744 c-1328 -767 -2450 -1415 -2492 -1440 l-78 -45 0 -1439 c0 -792 3 -1440 6 -1440 3 0 563 322 1244 715 682 393 1241 715 1244 715 4 0 6 -972 6 -2159 l0 -2159 625 -361 626 -361 1352 781 c744 430 1587 917 1875 1082 l522 302 0 1443 0 1443 -27 -15 c-16 -8 -577 -332 -1248 -720 l-1220 -704 -3 2879 c-1 1583 -5 2879 -10 2879 -4 -1 -1094 -629 -2422 -1396z"/>
  </g>
</svg>