<svg xmlns="http://www.w3.org/2000/svg" viewBox="0 0 2797.0 342.0" fill="currentColor" aria-hidden="true">
  <g transform="translate(0,342.0) scale(0.100000,-0.100000)">
    <path d="M15855 2919 c-1434 -192 -1389 -2267 51 -2375 l92 -7 102 203 c64 128 96 201 86 197 -284 -109 -714 100 -878 428 -469 933 821 1645 1372 758 25 -40 48 -72 51 -73 4 0 193 381 207 420 7 19 -157 175 -248 236 -247 164 -576 248 -835 213z M920 2680 l0 -200 579 -2 580 -3 -579 -760 -579 -760 -1 -202 0 -203 840 0 840 0 -2 198 -3 197 -581 5 -582 5 584 760 583 760 1 203 0 202 -840 0 -840 0 0 -200z M4084 2808 c13 -35 96 -254 185 -486 89 -233 161 -426 161 -428 0 -2 -188 -4 -417 -4 l-418 -1 -305 -659 c-168 -363 -306 -665 -308 -670 -2 -6 84 -10 241 -10 l244 0 136 323 c74 177 166 395 203 485 l68 162 346 0 346 0 164 -402 c90 -222 179 -440 198 -485 l34 -83 230 0 c215 0 230 1 223 18 -20 54 -851 2187 -872 2240 l-25 62 -229 0 -228 0 23 -62z M5680 1710 l0 -1160 208 0 209 0 6 242 c4 133 7 493 7 800 0 308 4 557 8 554 4 -2 233 -363 507 -800 l499 -796 227 0 227 0 6 212 c3 117 8 470 11 783 3 314 8 740 11 948 l7 377 -217 0 -216 0 -2 -801 -3 -801 -511 798 -512 799 -236 3 -236 2 0 -1160z M8507 2603 c-73 -148 -210 -419 -305 -604 l-172 -336 0 -558 0 -557 368 5 c1065 14 1546 335 1611 1074 65 740 -461 1242 -1302 1243 l-67 0 -133 -267z m181 -154 c592 -64 862 -294 862 -734 0 -390 -217 -611 -683 -695 -118 -21 -384 -46 -394 -37 -3 3 -2 337 2 741 l8 736 54 0 c29 0 97 -5 151 -11z M10470 2665 l0 -205 820 0 820 0 0 205 0 205 -820 0 -820 0 0 -205z M12908 2429 c-124 -244 -261 -514 -304 -599 l-78 -155 -4 -562 -4 -563 221 0 221 0 0 373 0 373 228 0 c125 0 272 2 327 4 228 11 392 -229 411 -600 3 -58 7 -115 10 -127 l4 -23 227 0 226 0 -7 118 c-19 337 -129 645 -286 802 l-41 41 58 59 c264 266 263 801 -2 1048 -169 158 -402 226 -846 248 l-136 7 -225 -444z m560 26 c262 -63 357 -156 357 -350 0 -269 -213 -397 -662 -399 -223 -1 -197 -49 -201 384 l-3 368 53 6 c29 3 69 8 88 10 69 8 306 -4 368 -19z M17638 2429 c-124 -244 -261 -514 -304 -599 l-78 -155 -4 -562 -4 -563 221 0 221 0 0 373 0 373 228 0 c125 0 272 2 327 4 228 11 392 -229 411 -600 3 -58 7 -115 10 -127 l4 -23 227 0 226 0 -7 118 c-19 337 -129 645 -286 802 l-41 41 58 59 c264 266 263 801 -2 1048 -169 158 -402 226 -846 248 l-136 7 -225 -444z m560 26 c262 -63 357 -156 357 -350 0 -269 -213 -397 -662 -399 -223 -1 -197 -49 -201 384 l-3 368 53 6 c29 3 69 8 88 10 69 8 306 -4 368 -19z M20594 2808 c13 -35 96 -254 185 -486 89 -233 161 -426 161 -428 0 -2 -188 -4 -417 -4 l-418 -1 -305 -659 c-168 -363 -306 -665 -308 -670 -2 -6 84 -10 241 -10 l244 0 136 323 c74 177 166 395 203 485 l68 162 346 0 346 0 164 -402 c90 -222 179 -440 198 -485 l34 -83 230 0 c215 0 230 1 223 18 -20 54 -851 2187 -872 2240 l-25 62 -229 0 -228 0 23 -62z M22360 1710 l0 -1160 218 0 219 0 6 293 c4 160 7 597 7 970 l0 677 595 0 595 0 0 78 c0 42 3 128 7 190 l6 112 -826 0 -827 0 0 -1160z M24490 2252 c0 -340 -3 -862 -7 -1160 l-6 -542 226 0 227 0 0 403 c0 221 3 743 7 1160 l6 757 -226 0 -227 0 0 -618z M25390 2665 l0 -205 820 0 820 0 0 205 0 205 -820 0 -820 0 0 -205z M23168 1973 l-68 -4 0 -216 0 -216 113 6 c61 4 214 7 340 7 l227 0 0 215 0 215 -272 -2 c-150 -1 -303 -3 -340 -5z M10470 1230 l0 -680 815 0 815 0 0 200 0 200 -626 0 -627 0 7 38 c3 20 6 149 6 286 l0 249 480 -5 480 -5 0 192 0 192 -427 6 c-236 4 -539 7 -675 7 l-248 0 0 -680z M25390 1230 l0 -680 815 0 815 0 0 200 0 200 -626 0 -627 0 7 38 c3 20 6 149 6 286 l0 249 480 -5 480 -5 0 192 0 192 -427 6 c-236 4 -539 7 -675 7 l-248 0 0 -680z M16303 1773 l-273 -3 0 -200 0 -200 192 2 192 3 92 195 c100 210 100 211 82 208 -7 -2 -136 -4 -285 -5z"/>
  </g>
</svg>