<svg xmlns="http://www.w3.org/2000/svg" viewBox="0 0 2807.0 352.0" fill="currentColor" aria-hidden="true">
  <g transform="translate(0,352.0) scale(0.100000,-0.100000)">
    <path d="M15905 2969 c-1434 -192 -1389 -2267 51 -2375 l92 -7 102 203 c64 128 96 201 86 197 -284 -109 -714 100 -878 428 -469 933 821 1645 1372 758 25 -40 48 -72 51 -73 4 0 193 381 207 420 7 19 -157 175 -248 236 -247 164 -576 248 -835 213z m300 -66 c246 -47 491 -171 643 -325 l63 -64 -67 -141 -67 -141 -42 56 c-376 506 -1174 454 -1447 -93 -84 -168 -105 -491 -44 -675 133 -399 402 -600 804 -600 l93 0 -70 -138 -71 -138 -72 8 c-473 56 -885 417 -1003 880 -185 732 542 1512 1280 1371z M970 2730 l0 -200 579 -2 580 -3 -579 -760 -579 -760 -1 -202 0 -203 840 0 840 0 -2 198 -3 197 -581 5 -582 5 584 760 583 760 1 203 0 202 -840 0 -840 0 0 -200z m1630 -2 l-1 -153 -584 -760 -584 -760 -1 -52 0 -53 583 -2 582 -3 3 -148 3 -147 -791 0 -790 0 0 153 1 152 579 760 579 760 1 53 0 52 -580 0 -580 0 0 150 0 150 790 0 790 0 0 -152z M4134 2858 c13 -35 96 -254 185 -486 89 -233 161 -426 161 -428 0 -2 -188 -4 -417 -4 l-418 -1 -305 -659 c-168 -363 -306 -665 -308 -670 -2 -6 84 -10 241 -10 l244 0 136 323 c74 177 166 395 203 485 l68 162 346 0 346 0 164 -402 c90 -222 179 -440 198 -485 l34 -83 230 0 c215 0 230 1 223 18 -20 54 -851 2187 -872 2240 l-25 62 -229 0 -228 0 23 -62z m401 -30 c46 -115 845 -2170 845 -2173 0 -3 -72 -5 -159 -5 l-159 0 -34 83 c-19 45 -108 263 -198 485 l-164 402 -396 0 -396 0 -199 -475 c-110 -262 -202 -480 -205 -486 -4 -6 -71 -8 -176 -7 l-170 3 286 617 285 617 418 1 417 0 0 54 c0 48 -130 412 -325 909 -7 16 5 17 153 17 l160 0 17 -42z M5730 1760 l0 -1160 208 0 209 0 6 242 c4 133 7 493 7 800 0 308 4 557 8 554 4 -2 233 -363 507 -800 l499 -796 227 0 227 0 6 212 c3 117 8 469 11 783 3 314 8 740 11 948 l7 377 -217 0 -216 0 -2 -801 -3 -801 -511 798 -512 799 -236 3 -236 2 0 -1160z m931 310 l509 -795 55 -3 55 -3 0 801 0 800 166 0 167 0 -7 -297 c-3 -164 -8 -568 -11 -898 -3 -330 -8 -696 -11 -812 l-6 -213 -177 0 -176 0 -501 798 -500 797 -57 3 -57 3 0 -559 c0 -307 -3 -667 -7 -800 l-6 -242 -159 0 -158 0 0 1110 0 1110 186 -2 186 -3 509 -795z M8557 2653 c-73 -148 -210 -419 -305 -604 l-172 -336 0 -558 0 -557 368 5 c1065 14 1546 335 1611 1074 65 740 -461 1242 -1302 1243 l-67 0 -133 -267z m308 207 c799 -90 1247 -583 1131 -1246 -113 -652 -586 -945 -1548 -961 l-318 -6 0 508 0 508 171 336 c95 185 174 338 176 341 2 2 1 -303 -3 -678 l-7 -682 79 0 c840 1 1221 354 1088 1008 -71 351 -456 572 -994 572 -27 0 -50 2 -50 5 0 26 153 305 168 305 9 0 58 -5 107 -10z m-127 -361 c592 -64 862 -294 862 -734 0 -390 -217 -611 -683 -695 -118 -21 -384 -46 -394 -37 -3 3 -2 337 2 741 l8 736 54 0 c29 0 97 -5 151 -11z M10520 2715 l0 -205 820 0 820 0 0 205 0 205 -820 0 -820 0 0 -205z m1590 0 l0 -155 -770 0 -770 0 0 155 0 155 770 0 770 0 0 -155z M12958 2479 c-124 -244 -261 -514 -304 -599 l-78 -155 -4 -562 -4 -563 221 0 221 0 0 373 0 373 228 0 c125 0 272 2 327 4 228 11 392 -229 411 -600 3 -58 7 -115 10 -127 l4 -23 227 0 226 0 -7 118 c-19 337 -129 645 -286 802 l-41 41 58 59 c264 266 263 801 -2 1048 -169 158 -402 226 -846 248 l-136 7 -225 -444z m571 365 c724 -82 1042 -716 589 -1174 -78 -78 -83 -135 -17 -201 146 -146 254 -433 283 -751 l7 -68 -176 0 c-203 0 -180 -18 -189 150 -20 380 -180 607 -426 603 -63 -1 -233 -3 -377 -4 l-263 -1 0 -374 0 -374 -171 0 -171 0 4 513 4 512 166 330 166 330 4 -307 c4 -365 -29 -323 251 -322 407 0 600 72 689 253 36 72 34 324 -2 395 -76 149 -271 220 -611 220 l-207 1 74 148 74 147 83 -5 c45 -4 142 -13 216 -21z m-11 -339 c262 -63 357 -156 357 -350 0 -269 -213 -397 -662 -399 -223 -1 -197 -49 -201 384 l-3 368 53 6 c29 3 69 8 88 10 69 8 306 -4 368 -19z M17688 2479 c-124 -244 -261 -514 -304 -599 l-78 -155 -4 -562 -4 -563 221 0 221 0 0 373 0 373 228 0 c125 0 272 2 327 4 228 11 392 -229 411 -600 3 -58 7 -115 10 -127 l4 -23 227 0 226 0 -7 118 c-19 337 -129 645 -286 802 l-41 41 58 59 c264 266 263 801 -2 1048 -169 158 -402 226 -846 248 l-136 7 -225 -444z m571 365 c724 -82 1042 -716 589 -1174 -78 -78 -83 -135 -17 -201 146 -146 254 -433 283 -751 l7 -68 -176 0 c-203 0 -180 -18 -189 150 -20 380 -180 607 -426 603 -63 -1 -233 -3 -377 -4 l-263 -1 0 -374 0 -374 -171 0 -171 0 4 513 4 512 166 330 166 330 4 -307 c4 -365 -29 -323 251 -322 407 0 600 72 689 253 36 72 34 324 -2 395 -76 149 -271 220 -611 220 l-207 1 74 148 74 147 83 -5 c45 -4 142 -13 216 -21z m-11 -339 c262 -63 357 -156 357 -350 0 -269 -213 -397 -662 -399 -223 -1 -197 -49 -201 384 l-3 368 53 6 c29 3 69 8 88 10 69 8 306 -4 368 -19z M20644 2858 c13 -35 96 -254 185 -486 89 -233 161 -426 161 -428 0 -2 -188 -4 -417 -4 l-418 -1 -305 -659 c-168 -363 -306 -665 -308 -670 -2 -6 84 -10 241 -10 l244 0 136 323 c74 177 166 395 203 485 l68 162 346 0 346 0 164 -402 c90 -222 179 -440 198 -485 l34 -83 230 0 c215 0 230 1 223 18 -20 54 -851 2187 -872 2240 l-25 62 -229 0 -228 0 23 -62z m401 -30 c46 -115 845 -2170 845 -2173 0 -3 -72 -5 -159 -5 l-159 0 -34 83 c-19 45 -108 263 -198 485 l-164 402 -396 0 -396 0 -199 -475 c-110 -262 -202 -480 -205 -486 -4 -6 -71 -8 -176 -7 l-170 3 286 617 285 617 418 1 417 0 0 54 c0 48 -130 412 -325 909 -7 16 5 17 153 17 l160 0 17 -42z M22410 1760 l0 -1160 218 0 219 0 6 293 c4 160 7 597 7 970 l0 677 595 0 595 0 0 78 c0 42 3 128 7 190 l6 112 -826 0 -827 0 0 -1160z m1596 1073 c-3 -21 -6 -84 -6 -140 l0 -103 -595 0 -595 0 0 -677 c0 -373 -3 -810 -7 -970 l-6 -293 -169 0 -168 0 0 1110 0 1110 776 0 777 0 -7 -37z M24540 2302 c0 -340 -3 -862 -7 -1160 l-6 -542 226 0 227 0 0 403 c0 221 3 743 7 1160 l6 757 -226 0 -227 0 0 -618z m397 -114 c-4 -376 -7 -875 -7 -1110 l0 -428 -177 0 -176 0 6 467 c4 256 7 756 7 1110 l0 643 177 0 176 0 -6 -682z M25440 2715 l0 -205 820 0 820 0 0 205 0 205 -820 0 -820 0 0 -205z m1590 0 l0 -155 -770 0 -770 0 0 155 0 155 770 0 770 0 0 -155z M23218 2023 l-68 -4 0 -216 0 -216 113 6 c61 4 214 7 340 7 l227 0 0 215 0 215 -272 -2 c-150 -1 -303 -3 -340 -5z m562 -208 l0 -165 -252 0 c-139 0 -270 -3 -290 -6 l-38 -7 0 166 0 166 68 4 c37 2 167 4 290 5 l222 2 0 -165z M10520 1280 l0 -680 815 0 815 0 0 200 0 200 -626 0 -627 0 7 38 c3 20 6 149 6 286 l0 249 480 -5 480 -5 0 192 0 192 -427 6 c-236 4 -539 7 -675 7 l-248 0 0 -680z m873 623 l427 -6 0 -141 0 -141 -480 3 -480 4 0 -224 c0 -122 -3 -274 -7 -335 l-6 -113 626 0 627 0 0 -150 0 -150 -765 0 -765 0 0 630 0 630 198 0 c108 0 389 -3 625 -7z M25440 1280 l0 -680 815 0 815 0 0 200 0 200 -626 0 -627 0 7 38 c3 20 6 149 6 286 l0 249 480 -5 480 -5 0 192 0 192 -427 6 c-236 4 -539 7 -675 7 l-248 0 0 -680z m873 623 l427 -6 0 -141 0 -141 -480 3 -480 4 0 -224 c0 -122 -3 -274 -7 -335 l-6 -113 626 0 627 0 0 -150 0 -150 -765 0 -765 0 0 630 0 630 198 0 c108 0 389 -3 625 -7z M16353 1823 l-273 -3 0 -200 0 -200 192 2 192 3 92 195 c100 210 100 211 82 208 -7 -2 -136 -4 -285 -5z m197 -57 c0 -2 -31 -70 -69 -150 l-70 -146 -140 0 -141 0 0 150 0 150 210 0 c116 0 210 -2 210 -4z"/>
  </g>
</svg>